<?xml version="1.0" standalone="no"?><!DOCTYPE svg PUBLIC "-//W3C//DTD SVG 1.1//EN" "http://www.w3.org/Graphics/SVG/1.1/DTD/svg11.dtd"><svg t="1585538370246" class="icon" viewBox="0 0 1024 1024" version="1.1" xmlns="http://www.w3.org/2000/svg" p-id="10183" xmlns:xlink="http://www.w3.org/1999/xlink" width="128" height="128"><defs><style type="text/css"></style></defs><path d="M896 320 896 0 64 0l0 320L0 320l0 704 192 0L192 320 128 320 128 64l320 0 0 256L384 320l0 704 192 0L576 320 512 320 512 64l320 0 0 256-64 0 0 704 192 0L960 320 896 320zM128 960 64 960 64 384l64 0L128 960zM512 960 448 960 448 384l64 0L512 960zM896 960l-64 0L832 384l64 0L896 960z" p-id="10184"></path></svg>