<?xml version="1.0" standalone="no"?><!DOCTYPE svg PUBLIC "-//W3C//DTD SVG 1.1//EN" "http://www.w3.org/Graphics/SVG/1.1/DTD/svg11.dtd"><svg t="1585538385607" class="icon" viewBox="0 0 1024 1024" version="1.1" xmlns="http://www.w3.org/2000/svg" p-id="10744" xmlns:xlink="http://www.w3.org/1999/xlink" width="128" height="128"><defs><style type="text/css"></style></defs><path d="M 608.364 508.579 q -9.79838 -3.81442 -19.8289 -7.12428 A 237.038 237.038 0 0 0 701.757 299.25 C 701.757 168.207 595.558 62 464.557 62 S 227.356 168.207 227.356 299.25 a 237.059 237.059 0 0 0 113.211 202.205 C 184.894 552.636 71.783 697.594 68.04 869.505 h 64.5827 a 332.308 332.308 0 0 1 427.749 -309.189 a 254.94 254.94 0 0 1 47.9931 -51.7368 Z m -143.808 -36.7718 a 172.556 172.556 0 1 1 122.102 -50.5561 a 171.467 171.467 0 0 1 -122.102 50.5561 Z" p-id="10745"></path><path d="M 464.588 683.376 l 62.1406 -85.3601 H 402.457 l 62.1306 85.3601 Z M 441.014 709.138 l -20.8077 195.736 l 44.3804 57.1254 l 44.3904 -57.1254 l -20.8077 -195.736 h -47.1554 Z M 767.258 519.78 c -104.211 0 -188.703 84.4822 -188.703 188.703 s 84.4924 188.703 188.703 188.703 s 188.703 -84.4822 188.703 -188.703 s -84.4822 -188.703 -188.703 -188.703 Z m 87.7921 276.494 a 124.12 124.12 0 1 1 36.3278 -87.7921 a 123.282 123.282 0 0 1 -36.348 87.7618 Z" p-id="10746"></path><path d="M 791.476 617.653 h -48.4371 v 66.6008 h -66.6008 v 48.4371 h 66.6008 v 66.6008 h 48.4371 v -66.6008 h 66.6008 v -48.4371 h -66.6008 v -66.6008 Z" p-id="10747"></path><path d="M 608.364 508.579 q -9.79838 -3.81442 -19.8289 -7.12428 A 237.038 237.038 0 0 0 701.757 299.25 C 701.757 168.207 595.558 62 464.557 62 S 227.356 168.207 227.356 299.25 a 237.059 237.059 0 0 0 113.211 202.205 C 184.894 552.636 71.783 697.594 68.04 869.505 h 64.5827 a 332.308 332.308 0 0 1 427.749 -309.189 a 254.94 254.94 0 0 1 47.9931 -51.7368 Z m -143.808 -36.7718 a 172.556 172.556 0 1 1 122.102 -50.5561 a 171.467 171.467 0 0 1 -122.102 50.5561 Z" p-id="10748"></path><path d="M 464.588 683.376 l 62.1406 -85.3601 H 402.457 l 62.1306 85.3601 Z M 441.014 709.138 l -20.8077 195.736 l 44.3804 57.1254 l 44.3904 -57.1254 l -20.8077 -195.736 h -47.1554 Z M 767.258 519.78 c -104.211 0 -188.703 84.4822 -188.703 188.703 s 84.4924 188.703 188.703 188.703 s 188.703 -84.4822 188.703 -188.703 s -84.4822 -188.703 -188.703 -188.703 Z m 87.7921 276.494 a 124.12 124.12 0 1 1 36.3278 -87.7921 a 123.282 123.282 0 0 1 -36.348 87.7618 Z" p-id="10749"></path><path d="M 791.476 617.653 h -48.4371 v 66.6008 h -66.6008 v 48.4371 h 66.6008 v 66.6008 h 48.4371 v -66.6008 h 66.6008 v -48.4371 h -66.6008 v -66.6008 Z" p-id="10750"></path></svg>